<svg width="780" height="130" viewBox="0 0 780 130" fill="none" xmlns="http://www.w3.org/2000/svg">
<g clip-path="url(#clip0_1_2)">
<path d="M207.026 9.26179C209.122 9.26179 210.169 10.4818 210.169 12.9217V95.9599C210.169 98.3852 208.986 99.5978 206.62 99.5978C204.239 99.5978 203.048 98.3852 203.048 95.9599V24.4274L173.494 70.4282C172.582 72.0207 171.163 72.817 169.239 72.817C167.599 72.817 166.281 72.0207 165.283 70.4282L135.579 23.9891V95.9599C135.579 98.3852 134.396 99.5978 132.029 99.5978C129.648 99.5978 128.458 98.3852 128.458 95.9599V12.9217C128.458 10.4818 129.648 9.26179 132.029 9.26179C133.854 9.26179 135.223 10.0581 136.135 11.6506L169.517 63.9631L202.77 11.6506C203.683 10.0581 205.101 9.26179 207.026 9.26179ZM239.189 99.5978C236.808 99.5978 235.617 98.3852 235.617 95.9599V12.9217C235.617 10.4818 236.808 9.26179 239.189 9.26179C241.555 9.26179 242.739 10.4818 242.739 12.9217V92.2999H284.482C286.863 92.2999 288.053 93.5199 288.053 95.9599C288.053 98.3852 286.863 99.5978 284.482 99.5978H239.189ZM356.741 49.1043C364.682 52.4647 368.653 59.7553 368.653 70.9761V75.4688C368.653 83.4168 366.65 89.429 362.643 93.5053C358.623 97.567 352.735 99.5978 344.98 99.5978H307.471C305.104 99.5978 303.921 98.3852 303.921 95.9599V12.9217C303.921 10.4818 305.104 9.26179 307.471 9.26179H343.205C349.862 9.26179 354.923 11.015 358.388 14.5215C361.852 18.028 363.584 23.1051 363.584 29.7529V33.5443C363.584 40.9225 361.303 46.1092 356.741 49.1043ZM311.042 16.5597V47.0004H344.98H345.792H346.07C353.013 46.6206 356.485 42.1352 356.485 33.5443V29.7529C356.485 25.0775 355.458 21.7099 353.405 19.6498C351.352 17.5897 347.952 16.5597 343.205 16.5597H311.042ZM361.531 75.4688V70.9761C361.531 65.0881 360.234 60.8365 357.639 58.2212C355.045 55.606 350.825 54.2983 344.98 54.2983H311.042V92.2999H344.98C350.825 92.2999 355.045 90.9704 357.639 88.3113C360.234 85.6376 361.531 81.3568 361.531 75.4688ZM449.68 99.5978C439.828 99.5978 432.622 97.2602 428.06 92.5849C423.498 87.9095 421.217 80.524 421.217 70.4282V38.4534C421.217 28.2553 423.476 20.8405 427.996 16.209C432.501 11.5775 439.686 9.26179 449.551 9.26179H466.103C474.5 9.26179 480.752 11.0662 484.858 14.6749C488.964 18.2691 491.245 24.0402 491.701 31.9883C491.886 34.4282 490.696 35.6482 488.13 35.6482C485.948 35.6482 484.765 34.4282 484.58 31.9883C484.209 26.2902 482.655 22.2943 479.918 20.0004C477.181 17.7066 472.576 16.5597 466.103 16.5597H449.551C444.248 16.5597 440.071 17.261 437.02 18.6636C433.969 20.0662 431.759 22.3381 430.391 25.4793C429.022 28.606 428.338 32.9306 428.338 38.4534V70.4282C428.338 75.9363 429.022 80.261 430.391 83.4022C431.759 86.5288 433.969 88.7935 437.02 90.1961C440.071 91.5986 444.291 92.2999 449.68 92.2999H466.103C472.576 92.2999 477.181 91.1823 479.918 88.9469C482.655 86.6969 484.209 82.6717 484.58 76.8714C484.765 74.4461 485.948 73.2334 488.13 73.2334C490.696 73.2334 491.886 74.4972 491.701 77.0248C491.245 84.9728 488.964 90.722 484.858 94.2724C480.752 97.8227 474.5 99.5978 466.103 99.5978H449.68ZM532.888 99.5978C526.416 99.5978 521.647 98.0564 518.582 94.9737C515.531 91.8909 514.005 87.0767 514.005 80.5313V6.04021C514.005 3.61488 515.189 2.40222 517.555 2.40222C519.936 2.40222 521.127 3.61488 521.127 6.04021V80.5313C521.127 85.1043 521.946 88.209 523.586 89.8454C525.225 91.4818 528.283 92.2999 532.76 92.2999C535.226 92.2999 536.459 93.5199 536.459 95.9599C536.459 97.1725 536.139 98.0784 535.497 98.6774C534.856 99.291 533.986 99.5978 532.888 99.5978ZM608.847 69.3105H559.042V74.4826C559.042 81.1303 560.339 85.7618 562.934 88.3771C565.529 90.9923 570.069 92.2999 576.556 92.2999H587.783C593.614 92.2999 597.834 91.5329 600.443 89.9988C603.038 88.4501 604.563 85.8056 605.019 82.0654C605.475 79.7277 606.709 78.5589 608.719 78.5589C609.988 78.5589 610.921 78.8876 611.52 79.5451C612.119 80.2025 612.326 81.1376 612.14 82.3503C611.499 88.2383 609.196 92.5849 605.233 95.3901C601.256 98.1953 595.439 99.5978 587.783 99.5978H576.556C568.073 99.5978 561.843 97.5889 557.866 93.5711C553.902 89.5532 551.921 83.1904 551.921 74.4826V58.6376C551.921 49.8568 553.902 43.4282 557.866 39.3519C561.843 35.2902 568.073 33.3032 576.556 33.3909H587.783C596.266 33.3909 602.489 35.429 606.452 39.5053C610.43 43.567 612.418 49.9444 612.418 58.6376V65.6506C612.418 68.0905 611.228 69.3105 608.847 69.3105ZM559.042 58.6376V62.0126H605.297V58.6376C605.297 51.9022 604.021 47.2269 601.469 44.6116C598.903 41.9964 594.341 40.6887 587.783 40.6887H576.556C569.984 40.6011 565.422 41.8649 562.87 44.4801C560.318 47.0954 559.042 51.8146 559.042 58.6376ZM667.57 33.3909C676.138 33.3909 682.39 35.3998 686.324 39.4176C690.245 43.4501 692.205 49.8568 692.205 58.6376V95.9599C692.205 98.3852 691.015 99.5978 688.634 99.5978C686.267 99.5978 685.084 98.3852 685.084 95.9599V89.0784C682.889 92.541 679.809 95.1563 675.846 96.9241C671.883 98.7066 667.114 99.5978 661.539 99.5978H653.884C646.855 99.5978 641.673 97.9176 638.337 94.5573C635.015 91.1823 633.354 85.8495 633.354 78.5589C633.354 71.2683 635.015 65.9136 638.337 62.4948C641.673 59.0905 646.855 57.3884 653.884 57.3884H685.084C684.899 51.2082 683.53 46.8836 680.978 44.4144C678.426 41.9306 673.957 40.6887 667.57 40.6887H659.636C653.791 40.6887 649.543 41.317 646.891 42.5735C644.253 43.8446 642.614 46.0215 641.972 49.1043C641.602 50.317 641.145 51.179 640.604 51.6904C640.062 52.2163 639.285 52.4793 638.273 52.4793C637.004 52.4793 636.07 52.1506 635.471 51.4931C634.872 50.8357 634.623 49.9006 634.723 48.6879C635.364 43.3551 637.71 39.4761 641.758 37.0508C645.822 34.6108 651.781 33.3909 659.636 33.3909H667.57ZM684.806 78.274L685.084 77.1563V64.6644H653.884C648.766 64.6644 645.251 65.6725 643.341 67.6887C641.431 69.705 640.475 73.3284 640.475 78.5589C640.475 83.7017 641.452 87.2813 643.405 89.2975C645.372 91.2991 648.865 92.2999 653.884 92.2999H661.539C675.682 92.2999 683.437 87.6246 684.806 78.274ZM750.907 33.3909C759.489 33.3909 765.741 35.429 769.661 39.5053C773.582 43.567 775.542 49.9444 775.542 58.6376V95.9599C775.542 98.3852 774.359 99.5978 771.992 99.5978C769.626 99.5978 768.442 98.3852 768.442 95.9599V58.6376C768.442 51.9022 767.159 47.2269 764.593 44.6116C762.041 41.9964 757.479 40.6887 750.907 40.6887H747.079C739.879 40.6887 734.269 41.8576 730.249 44.1952C726.229 46.5329 724.04 49.9956 723.684 54.5832C723.684 55.0508 723.634 55.3722 723.534 55.5475V95.9599C723.534 98.3852 722.351 99.5978 719.984 99.5978C717.618 99.5978 716.434 98.3852 716.434 95.9599V37.0508C716.434 34.6108 717.618 33.3909 719.984 33.3909C722.351 33.3909 723.534 34.6108 723.534 37.0508V43.7788C727.925 36.8535 735.773 33.3909 747.079 33.3909H750.907Z" fill="url(#paint0_linear_1_2)"/>
<path d="M423.263 106.466L429.829 118.816L436.392 106.466C436.499 106.263 436.606 106.117 436.714 106.03C436.825 105.942 436.933 105.898 437.04 105.898C437.173 105.898 437.284 105.966 437.372 106.102C437.46 106.24 437.504 106.41 437.504 106.61V119.727C437.504 119.984 437.479 120.203 437.429 120.384C437.38 120.565 437.253 120.656 437.05 120.656C436.874 120.656 436.755 120.565 436.694 120.384C436.635 120.203 436.606 119.984 436.606 119.727V107.963L430.348 119.515C430.178 119.815 430.006 119.965 429.829 119.965C429.637 119.965 429.464 119.815 429.308 119.515L423.053 107.963V119.727C423.053 119.984 423.022 120.203 422.961 120.384C422.9 120.565 422.782 120.656 422.606 120.656C422.402 120.656 422.276 120.565 422.226 120.384C422.177 120.203 422.152 119.984 422.152 119.727V106.61C422.152 106.41 422.196 106.24 422.284 106.102C422.372 105.966 422.483 105.898 422.616 105.898C422.715 105.898 422.82 105.942 422.931 106.03C423.039 106.117 423.15 106.263 423.263 106.466ZM450.877 120.656H441.316C441.209 120.656 441.127 120.651 441.068 120.643C441.007 120.634 440.963 120.615 440.936 120.584C440.907 120.552 440.891 120.503 440.889 120.435C440.884 120.37 440.882 120.28 440.882 120.164V106.759C440.882 106.53 440.914 106.329 440.977 106.157C441.04 105.984 441.174 105.898 441.38 105.898C441.549 105.898 441.659 105.989 441.709 106.17C441.758 106.35 441.783 106.547 441.783 106.759V119.782H450.877C451.02 119.782 451.127 119.829 451.199 119.922C451.274 120.013 451.311 120.112 451.311 120.219C451.311 120.332 451.274 120.434 451.199 120.524C451.127 120.612 451.02 120.656 450.877 120.656ZM464.844 116.336C464.844 117.237 464.706 117.968 464.43 118.527C464.155 119.09 463.775 119.528 463.292 119.842C462.808 120.155 462.238 120.369 461.581 120.482C460.926 120.598 460.22 120.656 459.463 120.656H453.364C453.245 120.656 453.155 120.612 453.097 120.524C453.036 120.434 453.005 120.324 453.005 120.194V106.386C453.005 106.228 453.045 106.106 453.124 106.021C453.2 105.939 453.299 105.898 453.418 105.898H458.267C458.775 105.898 459.277 105.904 459.771 105.915C460.266 105.929 460.734 105.975 461.174 106.051C461.615 106.124 462.02 106.236 462.391 106.386C462.763 106.536 463.085 106.748 463.356 107.022C463.627 107.296 463.838 107.641 463.99 108.056C464.143 108.472 464.22 108.979 464.22 109.578C464.22 110.092 464.164 110.526 464.051 110.88C463.938 111.233 463.794 111.528 463.62 111.766C463.447 112.003 463.255 112.191 463.044 112.329C462.832 112.465 462.627 112.567 462.428 112.635C462.231 112.7 462.052 112.741 461.889 112.758C461.726 112.777 461.607 112.787 461.53 112.787H461.455C461.887 112.838 462.304 112.93 462.706 113.063C463.108 113.196 463.466 113.398 463.78 113.669C464.094 113.938 464.348 114.288 464.542 114.72C464.736 115.153 464.837 115.691 464.844 116.336ZM463.319 109.578C463.319 109.129 463.259 108.73 463.139 108.383C463.02 108.032 462.79 107.738 462.452 107.501C462.113 107.261 461.639 107.08 461.032 106.958C460.424 106.834 459.634 106.772 458.66 106.772H453.906V112.457H458.914C459.675 112.457 460.334 112.418 460.89 112.342C461.443 112.266 461.899 112.122 462.258 111.91C462.62 111.698 462.886 111.407 463.058 111.036C463.232 110.666 463.319 110.18 463.319 109.578ZM463.942 116.336C463.942 115.728 463.825 115.221 463.59 114.814C463.353 114.407 463.017 114.085 462.584 113.847C462.15 113.607 461.623 113.436 461.001 113.334C460.38 113.232 459.684 113.182 458.914 113.182H453.906V119.782H459.866C460.82 119.782 461.569 119.685 462.116 119.49C462.663 119.295 463.07 119.039 463.339 118.722C463.608 118.403 463.776 118.036 463.844 117.62C463.91 117.205 463.942 116.777 463.942 116.336ZM475.886 114.547L480.663 119.876C480.713 119.935 480.745 119.996 480.758 120.058C480.772 120.12 480.785 120.186 480.799 120.257C480.799 120.381 480.766 120.479 480.701 120.55C480.633 120.62 480.543 120.656 480.43 120.656C480.373 120.664 480.318 120.649 480.264 120.609C480.212 120.569 480.157 120.514 480.101 120.444L475.242 114.958L473.633 116.086V120.071C473.633 120.274 473.586 120.422 473.494 120.516C473.401 120.609 473.306 120.656 473.209 120.656C473.117 120.656 473.023 120.609 472.928 120.516C472.833 120.422 472.786 120.274 472.786 120.071V106.479C472.786 106.304 472.837 106.171 472.938 106.081C473.04 105.993 473.137 105.949 473.23 105.949C473.329 105.949 473.42 105.993 473.504 106.081C473.59 106.171 473.633 106.304 473.633 106.479V115.225L480.26 110.401C480.303 110.375 480.349 110.362 480.399 110.362C480.489 110.362 480.565 110.406 480.626 110.494C480.685 110.581 480.714 110.675 480.714 110.774C480.714 110.887 480.654 110.993 480.535 111.092L475.886 114.547ZM491.601 119.727V118.786C491.452 119.007 491.263 119.234 491.035 119.469C490.804 119.703 490.522 119.918 490.188 120.113C489.851 120.308 489.457 120.469 489.005 120.596C488.553 120.723 488.032 120.787 487.44 120.787C486.683 120.787 486.038 120.697 485.505 120.516C484.972 120.335 484.536 120.052 484.197 119.668C483.859 119.283 483.612 118.793 483.459 118.197C483.303 117.6 483.225 116.883 483.225 116.043V111.46C483.225 111.347 483.231 111.233 483.242 111.117C483.251 111.001 483.27 110.899 483.299 110.812C483.327 110.724 483.368 110.652 483.425 110.596C483.481 110.536 483.556 110.507 483.648 110.507C483.755 110.507 483.836 110.536 483.892 110.596C483.949 110.652 483.99 110.724 484.014 110.812C484.039 110.899 484.055 111.001 484.062 111.117C484.069 111.233 484.072 111.347 484.072 111.46V116.043C484.072 116.786 484.122 117.41 484.221 117.913C484.318 118.416 484.492 118.823 484.743 119.134C484.994 119.442 485.336 119.664 485.769 119.799C486.205 119.938 486.762 120.007 487.44 120.007C487.932 120.007 488.389 119.953 488.809 119.846C489.229 119.741 489.612 119.607 489.957 119.443C490.305 119.279 490.616 119.096 490.889 118.892C491.165 118.689 491.405 118.491 491.611 118.299V111.46C491.611 111.347 491.614 111.233 491.621 111.117C491.628 111.001 491.644 110.899 491.668 110.812C491.693 110.724 491.732 110.652 491.784 110.596C491.838 110.536 491.911 110.507 492.004 110.507C492.108 110.507 492.19 110.536 492.251 110.596C492.312 110.652 492.359 110.724 492.39 110.812C492.422 110.899 492.441 111.001 492.448 111.117C492.454 111.233 492.458 111.347 492.458 111.46V119.727C492.458 119.843 492.452 119.956 492.441 120.066C492.432 120.177 492.413 120.276 492.383 120.363C492.356 120.451 492.316 120.521 492.261 120.575C492.209 120.629 492.141 120.656 492.055 120.656C491.858 120.656 491.733 120.574 491.679 120.41C491.627 120.246 491.601 120.058 491.601 119.846V119.727ZM502.06 110.562C502.139 110.587 502.196 110.638 502.23 110.714C502.266 110.788 502.284 110.868 502.284 110.956C502.284 111.072 502.253 111.178 502.192 111.274C502.134 111.373 502.044 111.422 501.925 111.422C501.889 111.422 501.867 111.419 501.86 111.414C501.854 111.411 501.832 111.405 501.796 111.397C501.52 111.298 501.257 111.222 501.006 111.168C500.756 111.117 500.482 111.092 500.186 111.092C499.771 111.092 499.374 111.142 498.997 111.244C498.618 111.346 498.274 111.5 497.967 111.706C497.662 111.913 497.397 112.178 497.171 112.503C496.945 112.825 496.776 113.203 496.663 113.635V119.727C496.663 119.956 496.638 120.168 496.588 120.363C496.538 120.558 496.426 120.656 496.249 120.656C496.15 120.656 496.07 120.629 496.009 120.575C495.95 120.521 495.906 120.451 495.877 120.363C495.85 120.276 495.833 120.177 495.826 120.066C495.819 119.956 495.816 119.843 495.816 119.727V111.248C495.816 111.045 495.844 110.871 495.9 110.727C495.957 110.58 496.087 110.507 496.29 110.507C496.446 110.507 496.546 110.577 496.592 110.718C496.639 110.86 496.663 111.036 496.663 111.248V112.787C496.776 112.247 496.971 111.809 497.249 111.473C497.527 111.14 497.837 110.882 498.181 110.702C498.524 110.518 498.875 110.396 499.234 110.337C499.594 110.275 499.911 110.244 500.186 110.244C500.455 110.244 500.687 110.255 500.881 110.278C501.075 110.297 501.242 110.323 501.383 110.354C501.525 110.385 501.649 110.419 501.755 110.456C501.861 110.49 501.963 110.525 502.06 110.562ZM512.638 119.727V118.786C512.491 119.007 512.303 119.234 512.072 119.469C511.842 119.703 511.56 119.918 511.225 120.113C510.891 120.308 510.498 120.469 510.046 120.596C509.595 120.723 509.072 120.787 508.478 120.787C507.723 120.787 507.079 120.697 506.546 120.516C506.013 120.335 505.577 120.052 505.238 119.668C504.9 119.283 504.652 118.793 504.496 118.197C504.34 117.6 504.263 116.883 504.263 116.043V111.46C504.263 111.347 504.268 111.233 504.279 111.117C504.291 111.001 504.31 110.899 504.337 110.812C504.366 110.724 504.409 110.652 504.466 110.596C504.522 110.536 504.596 110.507 504.686 110.507C504.792 110.507 504.874 110.536 504.93 110.596C504.987 110.652 505.027 110.724 505.052 110.812C505.077 110.899 505.093 111.001 505.099 111.117C505.106 111.233 505.11 111.347 505.11 111.46V116.043C505.11 116.786 505.159 117.41 505.259 117.913C505.358 118.416 505.533 118.823 505.784 119.134C506.035 119.442 506.377 119.664 506.811 119.799C507.244 119.938 507.8 120.007 508.478 120.007C508.972 120.007 509.43 119.953 509.85 119.846C510.27 119.741 510.653 119.607 510.998 119.443C511.344 119.279 511.655 119.096 511.93 118.892C512.206 118.689 512.445 118.491 512.648 118.299V111.46C512.648 111.347 512.652 111.233 512.659 111.117C512.668 111.001 512.683 110.899 512.706 110.812C512.731 110.724 512.77 110.652 512.825 110.596C512.877 110.536 512.949 110.507 513.042 110.507C513.148 110.507 513.23 110.536 513.289 110.596C513.35 110.652 513.396 110.724 513.428 110.812C513.459 110.899 513.479 111.001 513.485 111.117C513.492 111.233 513.496 111.347 513.496 111.46V119.727C513.496 119.843 513.491 119.956 513.482 120.066C513.471 120.177 513.45 120.276 513.421 120.363C513.394 120.451 513.353 120.521 513.299 120.575C513.247 120.629 513.179 120.656 513.096 120.656C512.897 120.656 512.772 120.574 512.72 120.41C512.665 120.246 512.638 120.058 512.638 119.846V119.727ZM530.037 119.965V114.178C530.037 113.567 529.996 113.059 529.915 112.652C529.834 112.247 529.709 111.924 529.542 111.681C529.377 111.438 529.171 111.267 528.922 111.168C528.676 111.072 528.384 111.024 528.045 111.024C527.141 111.024 526.391 111.254 525.795 111.715C525.199 112.173 524.703 112.803 524.307 113.606V119.965C524.307 120.126 524.295 120.25 524.27 120.338C524.245 120.425 524.211 120.493 524.169 120.541C524.128 120.592 524.084 120.623 524.036 120.634C523.991 120.649 523.947 120.656 523.904 120.656C523.855 120.656 523.804 120.651 523.752 120.643C523.698 120.634 523.65 120.608 523.609 120.562C523.567 120.517 523.53 120.449 523.501 120.359C523.474 120.266 523.46 120.134 523.46 119.965V113.606C523.46 112.803 523.31 112.173 523.01 111.715C522.709 111.254 522.228 111.024 521.566 111.024C521.065 111.024 520.598 111.094 520.167 111.236C519.736 111.377 519.353 111.566 519.018 111.804C518.684 112.044 518.404 112.325 518.178 112.647C517.952 112.97 517.796 113.307 517.711 113.661V119.965C517.711 120.276 517.67 120.468 517.589 120.541C517.507 120.617 517.425 120.656 517.341 120.656C517.292 120.656 517.238 120.651 517.182 120.643C517.125 120.634 517.074 120.608 517.026 120.562C516.981 120.517 516.943 120.449 516.911 120.359C516.879 120.266 516.863 120.134 516.863 119.965V111.155C516.863 110.873 516.91 110.694 517.002 110.621C517.093 110.545 517.191 110.507 517.297 110.507C517.417 110.507 517.514 110.545 517.589 110.621C517.663 110.694 517.7 110.873 517.7 111.155V112.787C517.813 112.389 517.992 112.031 518.236 111.715C518.48 111.395 518.769 111.128 519.103 110.913C519.437 110.696 519.813 110.529 520.231 110.413C520.647 110.3 521.084 110.244 521.543 110.244C522.08 110.244 522.513 110.334 522.84 110.515C523.168 110.696 523.424 110.916 523.609 111.176C523.792 111.436 523.921 111.708 523.996 111.99C524.07 112.273 524.124 112.516 524.158 112.719C524.285 112.445 524.457 112.163 524.673 111.872C524.888 111.58 525.152 111.313 525.466 111.07C525.78 110.827 526.15 110.628 526.574 110.473C526.997 110.32 527.48 110.244 528.024 110.244C528.998 110.244 529.717 110.555 530.183 111.176C530.65 111.798 530.884 112.799 530.884 114.178V119.965C530.884 120.126 530.869 120.25 530.84 120.338C530.813 120.425 530.779 120.493 530.738 120.541C530.7 120.592 530.656 120.623 530.606 120.634C530.557 120.649 530.511 120.656 530.471 120.656C530.414 120.656 530.361 120.651 530.311 120.643C530.262 120.634 530.215 120.608 530.173 120.562C530.13 120.517 530.096 120.449 530.071 120.359C530.048 120.266 530.037 120.134 530.037 119.965ZM539.978 111.291V119.82C539.978 119.936 539.975 120.045 539.968 120.147C539.961 120.249 539.945 120.336 539.921 120.41C539.896 120.486 539.855 120.545 539.799 120.588C539.742 120.633 539.661 120.656 539.555 120.656C539.356 120.656 539.236 120.581 539.195 120.431C539.153 120.281 539.131 120.078 539.131 119.82V111.316C539.131 111.096 539.156 110.905 539.206 110.744C539.255 110.586 539.378 110.507 539.575 110.507C539.751 110.507 539.863 110.586 539.91 110.744C539.956 110.905 539.978 111.087 539.978 111.291ZM538.992 107.513C538.992 107.31 539.045 107.14 539.151 107.005C539.258 106.866 539.392 106.797 539.555 106.797C539.717 106.797 539.855 106.866 539.968 107.005C540.081 107.14 540.137 107.31 540.137 107.513C540.137 107.717 540.081 107.881 539.968 108.005C539.855 108.127 539.717 108.188 539.555 108.188C539.392 108.188 539.258 108.127 539.151 108.005C539.045 107.881 538.992 107.717 538.992 107.513ZM548.469 111.024C547.658 111.024 546.967 111.107 546.395 111.274C545.824 111.443 545.356 111.712 544.993 112.079C544.629 112.444 544.363 112.913 544.193 113.487C544.024 114.061 543.939 114.75 543.939 115.556C543.939 116.367 544.032 117.055 544.217 117.62C544.404 118.185 544.687 118.645 545.064 118.998C545.443 119.351 545.915 119.609 546.48 119.77C547.045 119.928 547.704 120.007 548.459 120.007C548.798 120.007 549.142 119.976 549.492 119.914C549.84 119.852 550.173 119.774 550.492 119.681C550.81 119.587 551.103 119.484 551.369 119.371C551.638 119.255 551.857 119.145 552.027 119.04C552.133 118.995 552.207 118.973 552.25 118.973C552.341 118.973 552.413 119.007 552.467 119.074C552.519 119.139 552.545 119.22 552.545 119.316C552.545 119.387 552.528 119.46 552.494 119.536C552.458 119.61 552.402 119.674 552.325 119.727C551.704 120.126 551.061 120.403 550.397 120.558C549.733 120.711 549.09 120.787 548.469 120.787C547.665 120.787 546.933 120.708 546.273 120.55C545.614 120.391 545.049 120.113 544.579 119.714C544.11 119.316 543.744 118.782 543.482 118.112C543.222 117.439 543.092 116.587 543.092 115.556C543.092 114.53 543.212 113.678 543.451 112.999C543.691 112.318 544.039 111.773 544.498 111.363C544.957 110.95 545.52 110.661 546.189 110.494C546.855 110.327 547.615 110.244 548.469 110.244C549.09 110.244 549.733 110.32 550.397 110.473C551.061 110.628 551.704 110.905 552.325 111.304C552.402 111.354 552.458 111.418 552.494 111.494C552.528 111.571 552.545 111.644 552.545 111.715C552.545 111.811 552.519 111.891 552.467 111.956C552.413 112.024 552.341 112.058 552.25 112.058C552.207 112.058 552.133 112.036 552.027 111.99C551.857 111.886 551.638 111.775 551.369 111.66C551.103 111.544 550.81 111.441 550.492 111.35C550.173 111.257 549.84 111.179 549.492 111.117C549.142 111.055 548.801 111.024 548.469 111.024ZM546.639 124.153L548.638 120.524C548.731 120.355 548.823 120.27 548.913 120.27C548.969 120.27 549.016 120.3 549.052 120.359C549.088 120.415 549.106 120.483 549.106 120.562C549.106 120.633 549.091 120.699 549.062 120.762L547.304 124.603C547.247 124.727 547.184 124.816 547.114 124.87C547.044 124.923 546.97 124.95 546.894 124.95C546.794 124.95 546.709 124.908 546.639 124.823C546.567 124.738 546.531 124.634 546.531 124.509C546.531 124.388 546.567 124.269 546.639 124.153ZM556.476 111.291V119.82C556.476 119.936 556.472 120.045 556.465 120.147C556.456 120.249 556.439 120.336 556.415 120.41C556.392 120.486 556.352 120.545 556.296 120.588C556.239 120.633 556.158 120.656 556.052 120.656C555.853 120.656 555.732 120.581 555.689 120.431C555.649 120.281 555.628 120.078 555.628 119.82V111.316C555.628 111.096 555.653 110.905 555.703 110.744C555.75 110.586 555.874 110.507 556.072 110.507C556.248 110.507 556.359 110.586 556.404 110.744C556.452 110.905 556.476 111.087 556.476 111.291ZM555.49 107.513C555.49 107.31 555.543 107.14 555.649 107.005C555.755 106.866 555.889 106.797 556.052 106.797C556.215 106.797 556.352 106.866 556.465 107.005C556.578 107.14 556.635 107.31 556.635 107.513C556.635 107.717 556.578 107.881 556.465 108.005C556.352 108.127 556.215 108.188 556.052 108.188C555.889 108.188 555.755 108.127 555.649 108.005C555.543 107.881 555.49 107.717 555.49 107.513ZM574.315 115.119V119.702C574.315 119.818 574.31 119.932 574.301 120.045C574.29 120.161 574.269 120.263 574.24 120.35C574.213 120.438 574.172 120.511 574.118 120.571C574.066 120.627 573.998 120.656 573.915 120.656C573.809 120.656 573.727 120.627 573.671 120.571C573.614 120.511 573.57 120.438 573.539 120.35C573.507 120.263 573.487 120.161 573.478 120.045C573.471 119.932 573.468 119.818 573.468 119.702V115.119C573.468 114.429 573.426 113.829 573.342 113.317C573.256 112.803 573.096 112.376 572.861 112.037C572.624 111.698 572.293 111.443 571.868 111.274C571.446 111.107 570.896 111.024 570.218 111.024C569.809 111.024 569.368 111.066 568.893 111.151C568.421 111.233 567.972 111.378 567.545 111.588C567.118 111.794 566.739 112.069 566.406 112.414C566.074 112.759 565.845 113.191 565.719 113.711V119.702C565.719 119.818 565.713 119.932 565.702 120.045C565.69 120.161 565.671 120.263 565.644 120.35C565.615 120.438 565.574 120.511 565.522 120.571C565.47 120.627 565.401 120.656 565.315 120.656C565.216 120.656 565.137 120.627 565.078 120.571C565.017 120.511 564.971 120.438 564.939 120.35C564.908 120.263 564.889 120.161 564.882 120.045C564.875 119.932 564.872 119.818 564.872 119.702V106.822C564.872 106.718 564.875 106.61 564.882 106.5C564.889 106.39 564.908 106.291 564.939 106.204C564.971 106.113 565.017 106.04 565.078 105.983C565.137 105.927 565.216 105.898 565.315 105.898C565.401 105.898 565.47 105.924 565.522 105.975C565.574 106.028 565.615 106.099 565.644 106.187C565.671 106.277 565.69 106.377 565.702 106.488C565.713 106.598 565.719 106.709 565.719 106.822V112.787C565.795 112.434 565.928 112.125 566.115 111.859C566.303 111.593 566.522 111.366 566.772 111.176C567.023 110.987 567.3 110.833 567.603 110.714C567.905 110.593 568.21 110.497 568.517 110.426C568.825 110.355 569.125 110.307 569.419 110.282C569.712 110.256 569.979 110.244 570.218 110.244C570.979 110.244 571.622 110.326 572.146 110.49C572.668 110.651 573.089 110.922 573.41 111.304C573.731 111.682 573.962 112.182 574.105 112.804C574.245 113.429 574.315 114.2 574.315 115.119ZM578.54 111.291V119.82C578.54 119.936 578.536 120.045 578.53 120.147C578.523 120.249 578.507 120.336 578.482 120.41C578.457 120.486 578.417 120.545 578.36 120.588C578.304 120.633 578.222 120.656 578.116 120.656C577.92 120.656 577.8 120.581 577.757 120.431C577.714 120.281 577.693 120.078 577.693 119.82V111.316C577.693 111.096 577.718 110.905 577.767 110.744C577.817 110.586 577.94 110.507 578.137 110.507C578.315 110.507 578.427 110.586 578.472 110.744C578.517 110.905 578.54 111.087 578.54 111.291ZM577.557 107.513C577.557 107.31 577.609 107.14 577.713 107.005C577.819 106.866 577.954 106.797 578.116 106.797C578.279 106.797 578.417 106.866 578.53 107.005C578.643 107.14 578.699 107.31 578.699 107.513C578.699 107.717 578.643 107.881 578.53 108.005C578.417 108.127 578.279 108.188 578.116 108.188C577.954 108.188 577.819 108.127 577.713 108.005C577.609 107.881 577.557 107.717 577.557 107.513ZM584.185 111.198V119.409C584.185 119.72 584.179 120.052 584.168 120.406C584.156 120.759 584.121 121.112 584.063 121.465C584.002 121.819 583.908 122.158 583.781 122.483C583.655 122.811 583.476 123.1 583.246 123.352C583.018 123.603 582.727 123.804 582.372 123.954C582.02 124.104 581.589 124.179 581.081 124.179C580.991 124.179 580.903 124.177 580.817 124.174C580.733 124.169 580.659 124.15 580.593 124.119C580.53 124.088 580.479 124.042 580.441 123.979C580.402 123.92 580.383 123.832 580.383 123.716C580.383 123.601 580.402 123.512 580.441 123.449C580.479 123.39 580.53 123.346 580.593 123.318C580.659 123.293 580.733 123.277 580.817 123.271C580.903 123.269 580.991 123.267 581.081 123.267C581.668 123.267 582.114 123.151 582.419 122.919C582.727 122.691 582.949 122.392 583.087 122.025C583.225 121.66 583.301 121.248 583.317 120.787C583.331 120.329 583.338 119.87 583.338 119.409V111.198C583.338 111.003 583.364 110.839 583.415 110.706C583.47 110.573 583.588 110.507 583.771 110.507C583.977 110.507 584.097 110.573 584.13 110.706C584.167 110.839 584.185 111.003 584.185 111.198ZM583.188 107.513C583.188 107.31 583.242 107.14 583.348 107.005C583.454 106.866 583.588 106.797 583.751 106.797C583.914 106.797 584.051 106.866 584.164 107.005C584.277 107.14 584.334 107.31 584.334 107.513C584.334 107.717 584.277 107.881 584.164 108.005C584.051 108.127 583.914 108.188 583.751 108.188C583.588 108.188 583.454 108.127 583.348 108.005C583.242 107.881 583.188 107.717 583.188 107.513ZM591.713 124.297C592.441 124.297 593.047 124.198 593.533 124.001C594.021 123.803 594.41 123.476 594.702 123.021C594.995 122.566 595.204 121.961 595.329 121.207C595.453 120.449 595.515 119.515 595.515 118.405C595.436 118.766 595.308 119.074 595.132 119.329C594.956 119.586 594.746 119.804 594.502 119.982C594.258 120.157 593.994 120.298 593.709 120.406C593.422 120.51 593.131 120.591 592.835 120.647C592.539 120.707 592.248 120.745 591.961 120.762C591.676 120.779 591.413 120.787 591.171 120.787C590.41 120.787 589.768 120.701 589.247 120.528C588.723 120.356 588.299 120.065 587.976 119.655C587.651 119.245 587.416 118.704 587.271 118.031C587.127 117.362 587.054 116.528 587.054 115.53V111.46C587.054 111.347 587.058 111.233 587.065 111.117C587.071 111.001 587.088 110.899 587.115 110.812C587.145 110.724 587.185 110.652 587.237 110.596C587.292 110.536 587.368 110.507 587.468 110.507C587.572 110.507 587.652 110.536 587.708 110.596C587.765 110.652 587.808 110.724 587.837 110.812C587.864 110.899 587.882 111.001 587.891 111.117C587.898 111.233 587.902 111.347 587.902 111.46V115.53C587.902 116.395 587.946 117.114 588.034 117.688C588.122 118.262 588.286 118.721 588.525 119.066C588.764 119.411 589.098 119.654 589.525 119.795C589.951 119.936 590.5 120.007 591.171 120.007C591.573 120.007 592.005 119.972 592.466 119.901C592.924 119.83 593.359 119.702 593.77 119.515C594.183 119.332 594.547 119.076 594.861 118.748C595.175 118.42 595.393 117.996 595.515 117.476V111.46C595.515 111.347 595.519 111.233 595.528 111.117C595.54 111.001 595.559 110.899 595.586 110.812C595.615 110.724 595.656 110.652 595.708 110.596C595.762 110.536 595.831 110.507 595.915 110.507C596.021 110.507 596.102 110.536 596.159 110.596C596.215 110.652 596.259 110.724 596.291 110.812C596.322 110.899 596.342 111.001 596.348 111.117C596.358 111.233 596.362 111.347 596.362 111.46V117.968C596.362 119.327 596.275 120.462 596.101 121.372C595.927 122.282 595.654 123.013 595.281 123.564C594.906 124.115 594.426 124.506 593.841 124.738C593.254 124.967 592.545 125.082 591.713 125.082C591.119 125.082 590.619 125.042 590.212 124.963C589.808 124.884 589.466 124.783 589.186 124.662C588.908 124.543 588.677 124.409 588.494 124.259C588.309 124.109 588.15 123.968 588.017 123.835C587.96 123.765 587.932 123.681 587.932 123.585C587.932 123.461 587.958 123.356 588.01 123.271C588.064 123.189 588.148 123.148 588.261 123.148C588.317 123.148 588.377 123.174 588.44 123.225C588.574 123.349 588.731 123.475 588.911 123.602C589.092 123.732 589.311 123.848 589.569 123.95C589.826 124.051 590.13 124.135 590.48 124.2C590.828 124.265 591.239 124.297 591.713 124.297ZM604.24 111.024C603.582 111.024 603 111.094 602.491 111.236C601.983 111.377 601.551 111.605 601.194 111.918C600.837 112.232 600.56 112.636 600.364 113.131C600.165 113.625 600.052 114.23 600.025 114.945H608.007V114.229C608.007 113.788 607.942 113.374 607.811 112.987C607.68 112.597 607.466 112.256 607.171 111.965C606.875 111.674 606.486 111.443 606.005 111.274C605.526 111.107 604.938 111.024 604.24 111.024ZM603.687 120.007C604.358 120.007 604.944 119.953 605.446 119.846C605.947 119.741 606.378 119.614 606.737 119.464C607.096 119.315 607.391 119.159 607.621 118.998C607.852 118.84 608.03 118.708 608.157 118.604C608.199 118.584 608.228 118.574 608.241 118.574C608.318 118.574 608.39 118.621 608.458 118.714C608.526 118.807 608.56 118.906 608.56 119.011C608.56 119.11 608.524 119.19 608.451 119.252C608.388 119.332 608.253 119.454 608.045 119.621C607.837 119.791 607.539 119.962 607.15 120.134C606.762 120.304 606.282 120.455 605.71 120.588C605.139 120.721 604.461 120.787 603.677 120.787C602.857 120.787 602.162 120.66 601.59 120.406C601.019 120.148 600.553 119.789 600.194 119.329C599.833 118.871 599.572 118.32 599.411 117.675C599.249 117.031 599.167 116.324 599.167 115.556C599.167 114.53 599.297 113.678 599.557 112.999C599.819 112.318 600.177 111.773 600.631 111.363C601.087 110.95 601.624 110.661 602.241 110.494C602.86 110.327 603.526 110.244 604.24 110.244C605.708 110.244 606.807 110.594 607.536 111.295C608.266 111.999 608.631 113.004 608.631 114.309C608.631 114.434 608.624 114.571 608.611 114.72C608.597 114.87 608.578 115.014 608.553 115.153C608.528 115.289 608.5 115.403 608.468 115.496C608.437 115.59 608.406 115.636 608.377 115.636H605.266L600.015 115.501C600.028 116.323 600.114 117.02 600.272 117.591C600.432 118.159 600.665 118.622 600.97 118.981C601.277 119.337 601.657 119.597 602.108 119.761C602.56 119.925 603.087 120.007 603.687 120.007ZM620.913 115.119V119.702C620.913 119.818 620.907 119.932 620.893 120.045C620.879 120.161 620.857 120.263 620.825 120.35C620.794 120.438 620.75 120.511 620.693 120.571C620.637 120.627 620.565 120.656 620.48 120.656C620.373 120.656 620.294 120.627 620.242 120.571C620.19 120.511 620.15 120.438 620.12 120.35C620.093 120.263 620.078 120.161 620.073 120.045C620.068 119.932 620.066 119.818 620.066 119.702V115.119C620.066 114.429 620.026 113.829 619.944 113.317C619.865 112.803 619.707 112.376 619.47 112.037C619.233 111.698 618.904 111.443 618.484 111.274C618.064 111.107 617.515 111.024 616.837 111.024C616.422 111.024 615.981 111.066 615.516 111.151C615.048 111.233 614.603 111.378 614.181 111.588C613.756 111.794 613.382 112.069 613.059 112.414C612.734 112.759 612.508 113.191 612.382 113.711V119.702C612.382 119.818 612.378 119.932 612.371 120.045C612.362 120.161 612.344 120.263 612.317 120.35C612.288 120.438 612.247 120.511 612.195 120.571C612.143 120.627 612.074 120.656 611.989 120.656C611.889 120.656 611.81 120.627 611.751 120.571C611.69 120.511 611.644 120.438 611.613 120.35C611.581 120.263 611.559 120.161 611.548 120.045C611.539 119.932 611.535 119.818 611.535 119.702V111.117C611.535 110.967 611.559 110.829 611.609 110.702C611.657 110.572 611.78 110.507 611.978 110.507C612.155 110.507 612.265 110.566 612.311 110.685C612.358 110.806 612.382 110.95 612.382 111.117V112.787C612.578 112.222 612.853 111.768 613.205 111.426C613.56 111.087 613.947 110.832 614.367 110.659C614.787 110.487 615.214 110.374 615.648 110.32C616.082 110.269 616.478 110.244 616.837 110.244C617.601 110.244 618.241 110.326 618.758 110.49C619.278 110.651 619.698 110.922 620.019 111.304C620.342 111.682 620.571 112.182 620.707 112.804C620.844 113.429 620.913 114.2 620.913 115.119ZM630.146 110.706H633.663C633.769 110.706 633.848 110.74 633.9 110.807C633.955 110.873 633.982 110.945 633.982 111.024C633.982 111.103 633.955 111.176 633.9 111.244C633.848 111.309 633.769 111.342 633.663 111.342H630.146V116.959C630.146 117.603 630.199 118.125 630.306 118.523C630.412 118.919 630.555 119.228 630.736 119.452C630.917 119.672 631.128 119.819 631.369 119.893C631.613 119.969 631.873 120.007 632.149 120.007C632.488 120.007 632.82 119.932 633.145 119.782C633.47 119.633 633.844 119.416 634.266 119.134C634.352 119.08 634.434 119.053 634.51 119.053C634.603 119.053 634.675 119.086 634.727 119.151C634.779 119.218 634.805 119.3 634.805 119.397C634.805 119.575 634.728 119.716 634.575 119.82C634.277 120.024 634.013 120.188 633.785 120.312C633.555 120.434 633.343 120.53 633.148 120.601C632.954 120.674 632.765 120.723 632.582 120.749C632.399 120.774 632.205 120.787 632 120.787C631.62 120.787 631.266 120.721 630.936 120.588C630.608 120.455 630.322 120.242 630.078 119.948C629.835 119.651 629.644 119.258 629.506 118.769C629.368 118.277 629.299 117.674 629.299 116.959V111.342H628.367C628.27 111.342 628.197 111.309 628.147 111.244C628.097 111.176 628.073 111.103 628.073 111.024C628.073 110.945 628.097 110.873 628.147 110.807C628.197 110.74 628.27 110.706 628.367 110.706H629.299V107.407C629.299 107.125 629.345 106.945 629.438 106.869C629.531 106.796 629.626 106.759 629.723 106.759C629.845 106.759 629.945 106.796 630.024 106.869C630.106 106.945 630.146 107.125 630.146 107.407V110.706ZM637.167 117.688C637.167 118.112 637.254 118.47 637.428 118.761C637.599 119.052 637.841 119.291 638.153 119.477C638.462 119.661 638.83 119.795 639.257 119.88C639.686 119.965 640.155 120.007 640.663 120.007C641.285 120.007 641.835 119.952 642.313 119.842C642.795 119.731 643.215 119.592 643.574 119.422C643.933 119.255 644.237 119.073 644.485 118.875C644.732 118.674 644.936 118.482 645.099 118.299V115.636C644.392 115.512 643.661 115.395 642.906 115.284C642.152 115.174 641.39 115.119 640.619 115.119C640.075 115.119 639.589 115.159 639.162 115.238C638.735 115.317 638.374 115.454 638.078 115.649C637.782 115.841 637.556 116.104 637.401 116.437C637.245 116.768 637.167 117.185 637.167 117.688ZM641.666 111.024C640.989 111.024 640.41 111.046 639.932 111.092C639.45 111.134 639.039 111.19 638.698 111.261C638.355 111.332 638.067 111.407 637.834 111.486C637.602 111.568 637.397 111.648 637.221 111.727C637.135 111.727 637.057 111.674 636.987 111.566C636.917 111.462 636.882 111.347 636.882 111.223C636.882 111.107 636.924 111.024 637.007 110.973C637.064 110.936 637.197 110.878 637.407 110.799C637.615 110.72 637.908 110.638 638.285 110.553C638.662 110.468 639.132 110.396 639.694 110.337C640.255 110.275 640.916 110.244 641.68 110.244C642.039 110.244 642.395 110.272 642.747 110.328C643.1 110.385 643.433 110.488 643.747 110.638C644.063 110.791 644.357 110.998 644.628 111.261C644.899 111.527 645.131 111.87 645.326 112.291C645.52 112.71 645.673 113.217 645.786 113.813C645.899 114.41 645.956 115.109 645.956 115.912V119.727C645.956 119.835 645.952 119.941 645.946 120.045C645.939 120.153 645.92 120.253 645.888 120.346C645.856 120.437 645.812 120.511 645.756 120.571C645.699 120.627 645.622 120.656 645.522 120.656C645.359 120.656 645.248 120.562 645.187 120.376C645.128 120.192 645.099 119.959 645.099 119.676V118.761C644.956 118.981 644.772 119.211 644.546 119.452C644.32 119.689 644.035 119.907 643.689 120.105C643.343 120.305 642.931 120.469 642.452 120.596C641.971 120.723 641.403 120.787 640.748 120.787C640.134 120.787 639.557 120.731 639.017 120.617C638.477 120.502 638.007 120.319 637.607 120.071C637.207 119.825 636.893 119.505 636.665 119.112C636.435 118.72 636.32 118.245 636.32 117.688C636.32 117.044 636.428 116.507 636.645 116.077C636.86 115.65 637.158 115.307 637.539 115.047C637.919 114.784 638.365 114.6 638.878 114.496C639.391 114.388 639.943 114.335 640.535 114.335C640.98 114.335 641.426 114.354 641.873 114.394C642.323 114.434 642.748 114.492 643.15 114.568C643.552 114.644 643.921 114.737 644.255 114.848C644.591 114.958 644.873 115.088 645.099 115.238C645.099 114.336 645.004 113.611 644.814 113.063C644.622 112.517 644.368 112.092 644.052 111.787C643.733 111.482 643.367 111.278 642.954 111.176C642.54 111.075 642.111 111.024 641.666 111.024ZM652.309 114.547L657.083 119.876C657.133 119.935 657.165 119.996 657.181 120.058C657.195 120.12 657.208 120.186 657.222 120.257C657.222 120.381 657.188 120.479 657.12 120.55C657.055 120.62 656.965 120.656 656.852 120.656C656.796 120.664 656.741 120.649 656.686 120.609C656.634 120.569 656.58 120.514 656.524 120.444L651.662 114.958L650.052 116.086V120.071C650.052 120.274 650.007 120.422 649.917 120.516C649.824 120.609 649.728 120.656 649.629 120.656C649.538 120.656 649.446 120.609 649.351 120.516C649.254 120.422 649.205 120.274 649.205 120.071V106.479C649.205 106.304 649.257 106.171 649.361 106.081C649.463 105.993 649.56 105.949 649.652 105.949C649.75 105.949 649.841 105.993 649.927 106.081C650.01 106.171 650.052 106.304 650.052 106.479V115.225L656.683 110.401C656.724 110.375 656.769 110.362 656.819 110.362C656.911 110.362 656.987 110.406 657.046 110.494C657.107 110.581 657.137 110.675 657.137 110.774C657.137 110.887 657.077 110.993 656.957 111.092L652.309 114.547ZM660.759 111.291V119.82C660.759 119.936 660.756 120.045 660.749 120.147C660.742 120.249 660.726 120.336 660.702 120.41C660.677 120.486 660.636 120.545 660.58 120.588C660.523 120.633 660.442 120.656 660.336 120.656C660.137 120.656 660.017 120.581 659.976 120.431C659.934 120.281 659.912 120.078 659.912 119.82V111.316C659.912 111.096 659.937 110.905 659.987 110.744C660.036 110.586 660.159 110.507 660.356 110.507C660.532 110.507 660.643 110.586 660.688 110.744C660.735 110.905 660.759 111.087 660.759 111.291ZM659.773 107.513C659.773 107.31 659.826 107.14 659.932 107.005C660.039 106.866 660.173 106.797 660.336 106.797C660.498 106.797 660.636 106.866 660.749 107.005C660.862 107.14 660.918 107.31 660.918 107.513C660.918 107.717 660.862 107.881 660.749 108.005C660.636 108.127 660.498 108.188 660.336 108.188C660.173 108.188 660.039 108.127 659.932 108.005C659.826 107.881 659.773 107.717 659.773 107.513ZM669.897 110.244C670.532 110.244 671.133 110.326 671.7 110.49C672.269 110.651 672.767 110.93 673.194 111.329C673.621 111.727 673.96 112.257 674.21 112.919C674.461 113.58 674.587 114.41 674.587 115.407C674.587 116.396 674.483 117.234 674.275 117.921C674.067 118.605 673.763 119.159 673.363 119.583C672.966 120.007 672.476 120.314 671.893 120.503C671.31 120.692 670.645 120.787 669.897 120.787C669.326 120.787 668.799 120.743 668.318 120.656C667.839 120.568 667.403 120.455 667.01 120.316C666.62 120.181 666.268 120.028 665.957 119.859C665.647 119.692 665.372 119.529 665.13 119.371L665.11 124.191C665.11 124.307 665.108 124.42 665.106 124.53C665.102 124.641 665.086 124.74 665.059 124.827C665.029 124.918 664.989 124.988 664.937 125.039C664.883 125.093 664.802 125.12 664.696 125.12C664.59 125.12 664.511 125.091 664.459 125.035C664.407 124.978 664.366 124.904 664.337 124.81C664.31 124.717 664.294 124.611 664.29 124.492C664.285 124.374 664.283 124.248 664.283 124.115V111.155C664.283 110.873 664.326 110.694 664.412 110.621C664.495 110.545 664.587 110.507 664.686 110.507C664.806 110.507 664.902 110.545 664.974 110.621C665.044 110.694 665.079 110.873 665.079 111.155V112.906C665.163 112.536 665.307 112.211 665.513 111.931C665.718 111.654 665.958 111.415 666.231 111.214C666.507 111.017 666.805 110.854 667.126 110.727C667.449 110.597 667.774 110.497 668.101 110.426C668.429 110.355 668.749 110.307 669.06 110.282C669.37 110.256 669.649 110.244 669.897 110.244ZM669.897 111.024C669.473 111.032 669.009 111.075 668.508 111.151C668.007 111.224 667.527 111.359 667.068 111.554C666.609 111.749 666.204 112.019 665.852 112.363C665.499 112.708 665.259 113.158 665.13 113.711V118.799C665.435 118.94 665.761 119.084 666.109 119.231C666.459 119.378 666.832 119.508 667.227 119.621C667.623 119.737 668.043 119.83 668.488 119.901C668.933 119.972 669.403 120.007 669.897 120.007C670.575 120.007 671.155 119.918 671.639 119.74C672.122 119.565 672.521 119.289 672.835 118.913C673.149 118.537 673.378 118.061 673.523 117.485C673.667 116.905 673.739 116.213 673.739 115.407C673.739 114.579 673.639 113.882 673.438 113.317C673.237 112.752 672.964 112.301 672.618 111.965C672.272 111.629 671.865 111.388 671.395 111.244C670.925 111.097 670.426 111.024 669.897 111.024ZM688.055 110.244C688.69 110.244 689.292 110.326 689.861 110.49C690.428 110.651 690.925 110.93 691.352 111.329C691.781 111.727 692.12 112.257 692.368 112.919C692.619 113.58 692.744 114.41 692.744 115.407C692.744 116.396 692.64 117.234 692.432 117.921C692.225 118.605 691.921 119.159 691.521 119.583C691.123 120.007 690.633 120.314 690.051 120.503C689.468 120.692 688.803 120.787 688.055 120.787C687.483 120.787 686.957 120.743 686.476 120.656C685.997 120.568 685.561 120.455 685.168 120.316C684.777 120.181 684.427 120.028 684.118 119.859C683.806 119.692 683.53 119.529 683.291 119.371L683.271 124.191C683.271 124.307 683.268 124.42 683.264 124.53C683.259 124.641 683.244 124.74 683.216 124.827C683.187 124.918 683.146 124.988 683.094 125.039C683.042 125.093 682.963 125.12 682.857 125.12C682.751 125.12 682.671 125.091 682.617 125.035C682.565 124.978 682.524 124.904 682.495 124.81C682.468 124.717 682.452 124.611 682.447 124.492C682.445 124.374 682.444 124.248 682.444 124.115V111.155C682.444 110.873 682.486 110.694 682.569 110.621C682.655 110.545 682.748 110.507 682.847 110.507C682.967 110.507 683.062 110.545 683.132 110.621C683.202 110.694 683.237 110.873 683.237 111.155V112.906C683.323 112.536 683.467 112.211 683.67 111.931C683.876 111.654 684.117 111.415 684.392 111.214C684.668 111.017 684.966 110.854 685.287 110.727C685.607 110.597 685.932 110.497 686.259 110.426C686.589 110.355 686.909 110.307 687.218 110.282C687.53 110.256 687.809 110.244 688.055 110.244ZM688.055 111.024C687.632 111.032 687.171 111.075 686.669 111.151C686.168 111.224 685.688 111.359 685.229 111.554C684.771 111.749 684.364 112.019 684.009 112.363C683.657 112.708 683.417 113.158 683.291 113.711V118.799C683.594 118.94 683.92 119.084 684.27 119.231C684.62 119.378 684.993 119.508 685.388 119.621C685.784 119.737 686.203 119.83 686.645 119.901C687.09 119.972 687.56 120.007 688.055 120.007C688.733 120.007 689.313 119.918 689.796 119.74C690.28 119.565 690.678 119.289 690.992 118.913C691.306 118.537 691.536 118.061 691.68 117.485C691.825 116.905 691.897 116.213 691.897 115.407C691.897 114.579 691.797 113.882 691.596 113.317C691.395 112.752 691.121 112.301 690.776 111.965C690.43 111.629 690.022 111.388 689.552 111.244C689.083 111.097 688.583 111.024 688.055 111.024ZM696.59 106.822V119.727C696.59 119.984 696.565 120.203 696.515 120.384C696.466 120.565 696.353 120.656 696.176 120.656C696.07 120.656 695.989 120.632 695.933 120.584C695.876 120.536 695.834 120.469 695.807 120.384C695.778 120.3 695.76 120.205 695.753 120.1C695.746 119.993 695.743 119.877 695.743 119.753V106.852C695.743 106.719 695.746 106.595 695.753 106.479C695.76 106.366 695.779 106.267 695.811 106.182C695.842 106.098 695.888 106.028 695.949 105.975C696.008 105.924 696.091 105.898 696.197 105.898C696.283 105.898 696.352 105.924 696.404 105.975C696.458 106.028 696.498 106.099 696.525 106.187C696.555 106.277 696.573 106.377 696.58 106.488C696.586 106.598 696.59 106.709 696.59 106.822ZM700.537 117.688C700.537 118.112 700.624 118.47 700.798 118.761C700.972 119.052 701.214 119.291 701.523 119.477C701.835 119.661 702.204 119.795 702.631 119.88C703.058 119.965 703.526 120.007 704.034 120.007C704.655 120.007 705.205 119.952 705.684 119.842C706.165 119.731 706.585 119.592 706.944 119.422C707.304 119.255 707.607 119.073 707.856 118.875C708.102 118.674 708.306 118.482 708.469 118.299V115.636C707.764 115.512 707.034 115.395 706.277 115.284C705.522 115.174 704.76 115.119 703.99 115.119C703.448 115.119 702.962 115.159 702.533 115.238C702.106 115.317 701.745 115.454 701.449 115.649C701.153 115.841 700.927 116.104 700.771 116.437C700.615 116.768 700.537 117.185 700.537 117.688ZM705.04 111.024C704.363 111.024 703.783 111.046 703.302 111.092C702.823 111.134 702.412 111.19 702.069 111.261C701.725 111.332 701.437 111.407 701.205 111.486C700.972 111.568 700.768 111.648 700.591 111.727C700.508 111.727 700.43 111.674 700.358 111.566C700.288 111.462 700.253 111.347 700.253 111.223C700.253 111.107 700.295 111.024 700.381 110.973C700.438 110.936 700.57 110.878 700.778 110.799C700.986 110.72 701.278 110.638 701.655 110.553C702.033 110.468 702.502 110.396 703.065 110.337C703.625 110.275 704.287 110.244 705.05 110.244C705.409 110.244 705.765 110.272 706.118 110.328C706.472 110.385 706.807 110.488 707.121 110.638C707.435 110.791 707.727 110.998 707.998 111.261C708.269 111.527 708.502 111.87 708.696 112.291C708.89 112.71 709.044 113.217 709.157 113.813C709.27 114.41 709.326 115.109 709.326 115.912V119.727C709.326 119.835 709.323 119.941 709.316 120.045C709.309 120.153 709.29 120.253 709.259 120.346C709.227 120.437 709.183 120.511 709.126 120.571C709.07 120.627 708.992 120.656 708.893 120.656C708.73 120.656 708.619 120.562 708.561 120.376C708.5 120.192 708.469 119.959 708.469 119.676V118.761C708.329 118.981 708.146 119.211 707.92 119.452C707.694 119.689 707.407 119.907 707.06 120.105C706.714 120.305 706.302 120.469 705.823 120.596C705.342 120.723 704.774 120.787 704.119 120.787C703.504 120.787 702.927 120.731 702.387 120.617C701.847 120.502 701.377 120.319 700.978 120.071C700.58 119.825 700.266 119.505 700.036 119.112C699.805 118.72 699.69 118.245 699.69 117.688C699.69 117.044 699.799 116.507 700.015 116.077C700.23 115.65 700.528 115.307 700.91 115.047C701.292 114.784 701.738 114.6 702.248 114.496C702.761 114.388 703.313 114.335 703.905 114.335C704.35 114.335 704.796 114.354 705.243 114.394C705.693 114.434 706.119 114.492 706.521 114.568C706.923 114.644 707.292 114.737 707.629 114.848C707.963 114.958 708.243 115.088 708.469 115.238C708.469 114.336 708.374 113.611 708.184 113.063C707.992 112.517 707.738 112.092 707.422 111.787C707.104 111.482 706.738 111.278 706.324 111.176C705.911 111.075 705.483 111.024 705.04 111.024ZM713.521 110.706H717.035C717.141 110.706 717.22 110.74 717.272 110.807C717.326 110.873 717.353 110.945 717.353 111.024C717.353 111.103 717.326 111.176 717.272 111.244C717.22 111.309 717.141 111.342 717.035 111.342H713.521V116.959C713.521 117.603 713.574 118.125 713.68 118.523C713.784 118.919 713.926 119.228 714.107 119.452C714.288 119.672 714.5 119.819 714.744 119.893C714.986 119.969 715.244 120.007 715.52 120.007C715.859 120.007 716.191 119.932 716.516 119.782C716.841 119.633 717.215 119.416 717.638 119.134C717.724 119.08 717.805 119.053 717.882 119.053C717.974 119.053 718.047 119.086 718.098 119.151C718.153 119.218 718.18 119.3 718.18 119.397C718.18 119.575 718.102 119.716 717.946 119.82C717.65 120.024 717.387 120.188 717.157 120.312C716.928 120.434 716.717 120.53 716.523 120.601C716.329 120.674 716.139 120.723 715.954 120.749C715.771 120.774 715.578 120.787 715.374 120.787C714.993 120.787 714.637 120.721 714.307 120.588C713.979 120.455 713.694 120.242 713.45 119.948C713.208 119.651 713.018 119.258 712.881 118.769C712.743 118.277 712.674 117.674 712.674 116.959V111.342H711.742C711.643 111.342 711.568 111.309 711.519 111.244C711.469 111.176 711.444 111.103 711.444 111.024C711.444 110.945 711.469 110.873 711.519 110.807C711.568 110.74 711.643 110.706 711.742 110.706H712.674V107.407C712.674 107.125 712.719 106.945 712.809 106.869C712.902 106.796 712.998 106.759 713.097 106.759C713.217 106.759 713.318 106.796 713.399 106.869C713.48 106.945 713.521 107.125 713.521 107.407V110.706ZM721.07 109.845V110.706H724.933C725.039 110.706 725.119 110.74 725.173 110.807C725.225 110.873 725.251 110.945 725.251 111.024C725.251 111.103 725.223 111.176 725.166 111.244C725.11 111.309 725.032 111.342 724.933 111.342H721.07V120.007C721.07 120.29 721.029 120.468 720.948 120.541C720.867 120.617 720.766 120.656 720.646 120.656C720.547 120.656 720.451 120.617 720.358 120.541C720.268 120.468 720.223 120.29 720.223 120.007V111.342H719.291C719.192 111.342 719.117 111.309 719.068 111.244C719.018 111.176 718.993 111.103 718.993 111.024C718.993 110.945 719.018 110.873 719.068 110.807C719.117 110.74 719.192 110.706 719.291 110.706H720.233V109.845C720.233 109.13 720.291 108.527 720.406 108.035C720.523 107.546 720.689 107.153 720.904 106.856C721.121 106.562 721.381 106.349 721.683 106.216C721.986 106.083 722.328 106.017 722.71 106.017C722.922 106.017 723.123 106.024 723.313 106.038C723.505 106.049 723.698 106.075 723.892 106.114C724.087 106.154 724.291 106.208 724.506 106.276C724.72 106.341 724.955 106.427 725.21 106.534C725.43 106.622 725.539 106.759 725.539 106.945C725.539 107.016 725.511 107.088 725.454 107.162C725.398 107.238 725.317 107.276 725.21 107.276C725.125 107.276 725.057 107.258 725.007 107.221C724.628 107.054 724.259 106.94 723.903 106.878C723.546 106.815 723.198 106.784 722.859 106.784C722.583 106.784 722.335 106.822 722.114 106.899C721.89 106.972 721.7 107.119 721.544 107.34C721.391 107.56 721.273 107.872 721.192 108.277C721.111 108.678 721.07 109.201 721.07 109.845ZM731.668 120.787C730.695 120.787 729.873 120.666 729.202 120.422C728.531 120.179 727.989 119.833 727.575 119.384C727.162 118.934 726.864 118.386 726.681 117.739C726.498 117.095 726.406 116.367 726.406 115.556C726.406 114.62 726.51 113.819 726.718 113.152C726.926 112.485 727.247 111.935 727.68 111.503C728.116 111.068 728.664 110.75 729.324 110.549C729.983 110.345 730.765 110.244 731.668 110.244C732.572 110.244 733.354 110.345 734.013 110.549C734.673 110.75 735.219 111.068 735.653 111.503C736.089 111.935 736.411 112.485 736.619 113.152C736.826 113.819 736.93 114.62 736.93 115.556C736.93 116.367 736.839 117.095 736.656 117.739C736.473 118.386 736.175 118.934 735.761 119.384C735.348 119.833 734.806 120.179 734.135 120.422C733.464 120.666 732.642 120.787 731.668 120.787ZM731.668 120.007C732.31 120.007 732.864 119.948 733.332 119.829C733.797 119.707 734.194 119.541 734.521 119.329C734.849 119.117 735.113 118.869 735.314 118.587C735.517 118.304 735.677 117.998 735.792 117.667C735.909 117.336 735.987 116.993 736.026 116.637C736.064 116.278 736.083 115.917 736.083 115.556C736.083 114.733 735.999 114.035 735.829 113.461C735.66 112.888 735.395 112.42 735.036 112.058C734.675 111.696 734.215 111.434 733.657 111.27C733.102 111.106 732.439 111.024 731.668 111.024C730.891 111.024 730.226 111.106 729.673 111.27C729.119 111.434 728.662 111.696 728.301 112.058C727.941 112.42 727.677 112.888 727.508 113.461C727.338 114.035 727.254 114.733 727.254 115.556C727.254 115.917 727.273 116.278 727.311 116.637C727.35 116.993 727.427 117.336 727.545 117.667C727.66 117.998 727.818 118.304 728.019 118.587C728.22 118.869 728.486 119.117 728.815 119.329C729.143 119.541 729.539 119.707 730.005 119.829C730.472 119.948 731.027 120.007 731.668 120.007ZM746.153 110.562C746.23 110.587 746.286 110.638 746.323 110.714C746.359 110.788 746.377 110.868 746.377 110.956C746.377 111.072 746.346 111.178 746.285 111.274C746.224 111.373 746.134 111.422 746.014 111.422C745.98 111.422 745.96 111.419 745.953 111.414C745.944 111.411 745.923 111.405 745.889 111.397C745.613 111.298 745.35 111.222 745.099 111.168C744.849 111.117 744.575 111.092 744.279 111.092C743.862 111.092 743.464 111.142 743.087 111.244C742.71 111.346 742.367 111.5 742.06 111.706C741.753 111.913 741.486 112.178 741.261 112.503C741.035 112.825 740.865 113.203 740.752 113.635V119.727C740.752 119.956 740.727 120.168 740.678 120.363C740.628 120.558 740.515 120.656 740.339 120.656C740.242 120.656 740.163 120.629 740.102 120.575C740.041 120.521 739.997 120.451 739.97 120.363C739.94 120.276 739.922 120.177 739.915 120.066C739.909 119.956 739.905 119.843 739.905 119.727V111.248C739.905 111.045 739.934 110.871 739.99 110.727C740.046 110.58 740.177 110.507 740.383 110.507C740.539 110.507 740.639 110.577 740.685 110.718C740.73 110.86 740.752 111.036 740.752 111.248V112.787C740.865 112.247 741.062 111.809 741.342 111.473C741.62 111.14 741.93 110.882 742.274 110.702C742.615 110.518 742.966 110.396 743.327 110.337C743.687 110.275 744.004 110.244 744.279 110.244C744.548 110.244 744.779 110.255 744.971 110.278C745.165 110.297 745.333 110.323 745.476 110.354C745.616 110.385 745.739 110.419 745.845 110.456C745.951 110.49 746.054 110.525 746.153 110.562ZM761.654 119.965V114.178C761.654 113.567 761.614 113.059 761.532 112.652C761.451 112.247 761.328 111.924 761.163 111.681C760.996 111.438 760.789 111.267 760.543 111.168C760.295 111.072 760.001 111.024 759.662 111.024C758.759 111.024 758.009 111.254 757.412 111.715C756.816 112.173 756.32 112.803 755.925 113.606V119.965C755.925 120.126 755.912 120.25 755.888 120.338C755.863 120.425 755.83 120.493 755.789 120.541C755.746 120.592 755.702 120.623 755.657 120.634C755.61 120.649 755.566 120.656 755.525 120.656C755.475 120.656 755.423 120.651 755.369 120.643C755.317 120.634 755.27 120.608 755.227 120.562C755.184 120.517 755.149 120.449 755.122 120.359C755.093 120.266 755.078 120.134 755.078 119.965V113.606C755.078 112.803 754.928 112.173 754.627 111.715C754.329 111.254 753.848 111.024 753.184 111.024C752.682 111.024 752.216 111.094 751.784 111.236C751.355 111.377 750.972 111.566 750.636 111.804C750.302 112.044 750.021 112.325 749.796 112.647C749.57 112.97 749.414 113.307 749.328 113.661V119.965C749.328 120.276 749.287 120.468 749.206 120.541C749.127 120.617 749.045 120.656 748.959 120.656C748.909 120.656 748.856 120.651 748.799 120.643C748.743 120.634 748.692 120.608 748.647 120.562C748.602 120.517 748.562 120.449 748.528 120.359C748.497 120.266 748.481 120.134 748.481 119.965V111.155C748.481 110.873 748.527 110.694 748.62 110.621C748.712 110.545 748.812 110.507 748.918 110.507C749.038 110.507 749.134 110.545 749.206 110.621C749.281 110.694 749.318 110.873 749.318 111.155V112.787C749.431 112.389 749.609 112.031 749.853 111.715C750.097 111.395 750.386 111.128 750.721 110.913C751.057 110.696 751.433 110.529 751.849 110.413C752.267 110.3 752.705 110.244 753.163 110.244C753.699 110.244 754.13 110.334 754.458 110.515C754.788 110.696 755.044 110.916 755.227 111.176C755.41 111.436 755.539 111.708 755.613 111.99C755.688 112.273 755.743 112.516 755.779 112.719C755.906 112.445 756.076 112.163 756.291 111.872C756.505 111.58 756.77 111.313 757.084 111.07C757.4 110.827 757.769 110.628 758.192 110.473C758.616 110.32 759.1 110.244 759.642 110.244C760.615 110.244 761.336 110.555 761.804 111.176C762.269 111.798 762.502 112.799 762.502 114.178V119.965C762.502 120.126 762.487 120.25 762.457 120.338C762.43 120.425 762.398 120.493 762.359 120.541C762.321 120.592 762.277 120.623 762.227 120.634C762.177 120.649 762.131 120.656 762.088 120.656C762.032 120.656 761.979 120.651 761.929 120.643C761.879 120.634 761.834 120.608 761.793 120.562C761.75 120.517 761.717 120.449 761.692 120.359C761.667 120.266 761.654 120.134 761.654 119.965ZM773.991 119.727V118.786C773.842 119.007 773.652 119.234 773.422 119.469C773.194 119.703 772.911 119.918 772.575 120.113C772.24 120.308 771.847 120.469 771.396 120.596C770.944 120.723 770.421 120.787 769.827 120.787C769.072 120.787 768.429 120.697 767.896 120.516C767.363 120.335 766.927 120.052 766.588 119.668C766.249 119.283 766.002 118.793 765.846 118.197C765.692 117.6 765.615 116.883 765.615 116.043V111.46C765.615 111.347 765.62 111.233 765.629 111.117C765.64 111.001 765.66 110.899 765.69 110.812C765.717 110.724 765.759 110.652 765.815 110.596C765.872 110.536 765.946 110.507 766.039 110.507C766.145 110.507 766.226 110.536 766.283 110.596C766.339 110.652 766.379 110.724 766.401 110.812C766.426 110.899 766.443 111.001 766.452 111.117C766.459 111.233 766.462 111.347 766.462 111.46V116.043C766.462 116.786 766.511 117.41 766.608 117.913C766.707 118.416 766.883 118.823 767.133 119.134C767.384 119.442 767.726 119.664 768.16 119.799C768.594 119.938 769.149 120.007 769.827 120.007C770.322 120.007 770.779 119.953 771.199 119.846C771.619 119.741 772.002 119.607 772.348 119.443C772.693 119.279 773.004 119.096 773.28 118.892C773.555 118.689 773.796 118.491 774.001 118.299V111.46C774.001 111.347 774.005 111.233 774.011 111.117C774.018 111.001 774.034 110.899 774.059 110.812C774.084 110.724 774.122 110.652 774.174 110.596C774.228 110.536 774.301 110.507 774.391 110.507C774.497 110.507 774.581 110.536 774.642 110.596C774.7 110.652 774.745 110.724 774.777 110.812C774.809 110.899 774.829 111.001 774.838 111.117C774.845 111.233 774.848 111.347 774.848 111.46V119.727C774.848 119.843 774.843 119.956 774.831 120.066C774.82 120.177 774.801 120.276 774.774 120.363C774.744 120.451 774.704 120.521 774.652 120.575C774.598 120.629 774.529 120.656 774.445 120.656C774.246 120.656 774.121 120.574 774.069 120.41C774.017 120.246 773.991 120.058 773.991 119.846V119.727Z" fill="url(#paint1_linear_1_2)"/>
<path d="M52.5 64.8808L104 95.558H1L52.5 64.8808Z" fill="#B8B9BB"/>
<path d="M52.5 6.61111V64.8808L1 95.558L52.5 6.61111Z" fill="#3DA2DB"/>
<path d="M52.5 6.61111V64.8808L104 95.558L52.5 6.61111Z" fill="#1D1E1C"/>
</g>
<defs>
<linearGradient id="paint0_linear_1_2" x1="128.458" y1="51" x2="775.542" y2="51" gradientUnits="userSpaceOnUse">
<stop offset="0.31" stop-color="#3DA2DB"/>
<stop offset="1" stop-color="#3DDB7C"/>
</linearGradient>
<linearGradient id="paint1_linear_1_2" x1="422.152" y1="115.509" x2="774.848" y2="115.509" gradientUnits="userSpaceOnUse">
<stop stop-color="#3DA2DB"/>
<stop offset="1" stop-color="#3DA2DB"/>
</linearGradient>
<clipPath id="clip0_1_2">
<rect width="780" height="130" fill="white"/>
</clipPath>
</defs>
</svg>
